<?xml version="1.0" standalone="no"?>
<!DOCTYPE svg PUBLIC "-//W3C//DTD SVG 20010904//EN"
 "http://www.w3.org/TR/2001/REC-SVG-20010904/DTD/svg10.dtd">
<svg version="1.0" xmlns="http://www.w3.org/2000/svg"
 width="300.000000pt" height="300.000000pt" viewBox="0 0 300.000000 300.000000"
 preserveAspectRatio="xMidYMid meet">

<g transform="translate(0.000000,300.000000) scale(0.100000,-0.100000)"
fill="#000000" stroke="none">
<path d="M1363 2989 c-478 -46 -903 -314 -1148 -725 -211 -353 -265 -781 -150
-1185 147 -515 585 -924 1114 -1039 401 -88 812 -9 1154 220 542 363 783 1028
602 1661 -93 327 -312 625 -602 819 -217 146 -438 224 -708 250 -113 11 -145
11 -262 -1z m616 -730 c173 -40 273 -165 274 -344 0 -180 -96 -296 -288 -345
-96 -25 -276 -27 -445 -6 -175 22 -278 27 -359 18 l-73 -8 6 54 c4 30 21 93
39 141 92 244 297 424 552 485 71 17 231 20 294 5z m-499 -823 c175 -22 278
-27 359 -18 l73 8 -6 -52 c-3 -29 -20 -91 -37 -137 -67 -186 -207 -342 -383
-427 -120 -58 -214 -80 -333 -80 -104 1 -156 11 -230 47 -112 55 -175 165
-176 308 0 179 96 295 284 345 92 24 284 26 449 6z"/>
</g>
</svg>
